<svg width="18" height="18" viewBox="0 0 18 18" fill="none" xmlns="http://www.w3.org/2000/svg">
<path fill-rule="evenodd" clip-rule="evenodd" d="M16.0909 4.06199C16.1622 4.17015 16.1939 4.29958 16.1808 4.42843C16.1677 4.55729 16.1105 4.67767 16.0189 4.76924L9.12418 11.6632C9.05364 11.7337 8.96564 11.7842 8.86918 11.8095L5.99743 12.5595C5.9025 12.5843 5.80275 12.5838 5.70807 12.558C5.6134 12.5323 5.52709 12.4823 5.45772 12.4129C5.38835 12.3436 5.33833 12.2573 5.31262 12.1626C5.28692 12.0679 5.28642 11.9682 5.31118 11.8732L6.06118 9.00224C6.0836 8.91627 6.12485 8.83634 6.18193 8.76824L13.1022 1.85249C13.2076 1.74716 13.3506 1.68799 13.4997 1.68799C13.6487 1.68799 13.7917 1.74716 13.8972 1.85249L16.0189 3.97349C16.0451 4.00112 16.0692 4.03071 16.0909 4.06199ZM14.8257 4.37099L13.4997 3.04574L7.11118 9.43424L6.64243 11.229L8.43718 10.7602L14.8257 4.37099Z" fill="black"/>
<path d="M14.7298 12.8701C14.9348 11.118 15.0002 9.35246 14.9255 7.59006C14.9238 7.54852 14.9307 7.50707 14.9458 7.46834C14.9609 7.4296 14.9839 7.39443 15.0133 7.36506L15.7513 6.62706C15.7715 6.60678 15.797 6.59275 15.825 6.58667C15.8529 6.58058 15.882 6.5827 15.9088 6.59275C15.9356 6.60281 15.9589 6.62039 15.9759 6.64337C15.9929 6.66636 16.003 6.69377 16.0048 6.72231C16.1433 8.81574 16.0906 10.9174 15.8473 13.0013C15.6703 14.5178 14.4523 15.7066 12.9425 15.8753C10.3215 16.1654 7.67653 16.1654 5.05553 15.8753C3.54653 15.7066 2.32778 14.5178 2.15078 13.0013C1.84036 10.3428 1.84036 7.65728 2.15078 4.99881C2.32778 3.48231 3.54578 2.29356 5.05553 2.12481C7.04487 1.90509 9.04907 1.85166 11.0473 1.96506C11.0759 1.96711 11.1033 1.97732 11.1263 1.99447C11.1492 2.01162 11.1668 2.03499 11.1769 2.06182C11.187 2.08866 11.1892 2.11782 11.1833 2.14586C11.1773 2.17391 11.1634 2.19966 11.1433 2.22006L10.3985 2.96406C10.3694 2.99319 10.3346 3.01602 10.2963 3.03112C10.258 3.04621 10.2169 3.05326 10.1758 3.05181C8.50835 2.9947 6.83897 3.05861 5.18078 3.24306C4.69624 3.29669 4.24392 3.5121 3.8969 3.8545C3.54988 4.19689 3.32841 4.64628 3.26828 5.13006C2.96743 7.70129 2.96743 10.2988 3.26828 12.8701C3.32841 13.3538 3.54988 13.8032 3.8969 14.1456C4.24392 14.488 4.69624 14.7034 5.18078 14.7571C7.69703 15.0383 10.301 15.0383 12.818 14.7571C13.3026 14.7034 13.7549 14.488 14.1019 14.1456C14.4489 13.8032 14.6697 13.3538 14.7298 12.8701Z" fill="black"/>
</svg>
