<svg width="22" height="22" viewBox="0 0 22 22" fill="none" xmlns="http://www.w3.org/2000/svg">
<path d="M1.66602 17.9997C1.66602 16.762 2.15768 15.575 3.03285 14.6998C3.90802 13.8247 5.09501 13.333 6.33268 13.333H15.666C16.9037 13.333 18.0907 13.8247 18.9658 14.6998C19.841 15.575 20.3327 16.762 20.3327 17.9997C20.3327 18.6185 20.0868 19.212 19.6493 19.6496C19.2117 20.0872 18.6182 20.333 17.9993 20.333H3.99935C3.38051 20.333 2.78702 20.0872 2.34943 19.6496C1.91185 19.212 1.66602 18.6185 1.66602 17.9997Z" stroke="black" stroke-width="2" stroke-linejoin="round"/>
<path d="M11 8.6665C12.933 8.6665 14.5 7.0995 14.5 5.1665C14.5 3.23351 12.933 1.6665 11 1.6665C9.067 1.6665 7.5 3.23351 7.5 5.1665C7.5 7.0995 9.067 8.6665 11 8.6665Z" stroke="black" stroke-width="2"/>
</svg>
