<svg width="20" height="21" viewBox="0 0 20 21" fill="none" xmlns="http://www.w3.org/2000/svg">
<path d="M16.1111 10.5C15.6691 10.5 15.2452 10.3244 14.9326 10.0118C14.62 9.69928 14.4444 9.27536 14.4444 8.83333C14.4444 8.39131 14.62 7.96738 14.9326 7.65482C15.2452 7.34226 15.6691 7.16667 16.1111 7.16667C16.5531 7.16667 16.9771 7.34226 17.2896 7.65482C17.6022 7.96738 17.7778 8.39131 17.7778 8.83333C17.7778 9.27536 17.6022 9.69928 17.2896 10.0118C16.9771 10.3244 16.5531 10.5 16.1111 10.5ZM12.7778 6.05556C12.3358 6.05556 11.9118 5.87996 11.5993 5.5674C11.2867 5.25484 11.1111 4.83092 11.1111 4.38889C11.1111 3.94686 11.2867 3.52294 11.5993 3.21038C11.9118 2.89782 12.3358 2.72222 12.7778 2.72222C13.2198 2.72222 13.6437 2.89782 13.9563 3.21038C14.2689 3.52294 14.4444 3.94686 14.4444 4.38889C14.4444 4.83092 14.2689 5.25484 13.9563 5.5674C13.6437 5.87996 13.2198 6.05556 12.7778 6.05556ZM7.22222 6.05556C6.7802 6.05556 6.35627 5.87996 6.04371 5.5674C5.73115 5.25484 5.55556 4.83092 5.55556 4.38889C5.55556 3.94686 5.73115 3.52294 6.04371 3.21038C6.35627 2.89782 6.7802 2.72222 7.22222 2.72222C7.66425 2.72222 8.08817 2.89782 8.40073 3.21038C8.71329 3.52294 8.88889 3.94686 8.88889 4.38889C8.88889 4.83092 8.71329 5.25484 8.40073 5.5674C8.08817 5.87996 7.66425 6.05556 7.22222 6.05556ZM3.88889 10.5C3.44686 10.5 3.02294 10.3244 2.71038 10.0118C2.39782 9.69928 2.22222 9.27536 2.22222 8.83333C2.22222 8.39131 2.39782 7.96738 2.71038 7.65482C3.02294 7.34226 3.44686 7.16667 3.88889 7.16667C4.33092 7.16667 4.75484 7.34226 5.0674 7.65482C5.37996 7.96738 5.55556 8.39131 5.55556 8.83333C5.55556 9.27536 5.37996 9.69928 5.0674 10.0118C4.75484 10.3244 4.33092 10.5 3.88889 10.5ZM10 0.5C7.34784 0.5 4.8043 1.55357 2.92893 3.42893C1.05357 5.3043 0 7.84784 0 10.5C0 13.1522 1.05357 15.6957 2.92893 17.5711C4.8043 19.4464 7.34784 20.5 10 20.5C10.442 20.5 10.866 20.3244 11.1785 20.0118C11.4911 19.6993 11.6667 19.2754 11.6667 18.8333C11.6667 18.4 11.5 18.0111 11.2333 17.7222C10.9778 17.4222 10.8111 17.0333 10.8111 16.6111C10.8111 16.1691 10.9867 15.7452 11.2993 15.4326C11.6118 15.12 12.0358 14.9444 12.4778 14.9444H14.4444C15.9179 14.9444 17.3309 14.3591 18.3728 13.3173C19.4147 12.2754 20 10.8623 20 9.38889C20 4.47778 15.5222 0.5 10 0.5Z" fill="black"/>
</svg>
