<svg width="27" height="27" viewBox="0 0 27 27" fill="none" xmlns="http://www.w3.org/2000/svg">
<path d="M13.5 23.0625C15.5362 23.0625 17.4881 22.8612 19.2971 22.4922C21.5584 22.0309 22.6879 21.8014 23.7184 20.4762C24.75 19.1498 24.75 17.6277 24.75 14.5834V12.4167C24.75 9.37242 24.75 7.84917 23.7184 6.52392C22.6879 5.19867 21.5584 4.96804 19.2971 4.50792C17.3885 4.12537 15.4465 3.9343 13.5 3.93754C11.4638 3.93754 9.51188 4.13892 7.70288 4.50792C5.44163 4.96917 4.31213 5.19867 3.28163 6.52392C2.25 7.85029 2.25 9.37242 2.25 12.4167V14.5834C2.25 17.6277 2.25 19.1509 3.28163 20.4762C4.31213 21.8014 5.44163 22.032 7.70288 22.4922C9.51188 22.8612 11.4638 23.0625 13.5 23.0625Z" stroke="black" stroke-width="1.5" stroke-linecap="round" stroke-linejoin="round"/>
<path d="M17.9572 13.8524C17.7907 14.5341 16.902 15.0224 15.1256 16.0023C13.1929 17.0676 12.2265 17.5998 11.4446 17.3939C11.1841 17.3266 10.9406 17.2051 10.7303 17.0373C10.125 16.5479 10.125 15.532 10.125 13.5003C10.125 11.4685 10.125 10.4526 10.7303 9.96326C10.935 9.79788 11.1803 9.67526 11.4446 9.60663C12.2265 9.40076 13.1929 9.93288 15.1256 10.9983C16.9031 11.977 17.7907 12.4664 17.9572 13.1481C18.0135 13.3799 18.0135 13.6206 17.9572 13.8524Z" stroke="black" stroke-width="1.5" stroke-linecap="round" stroke-linejoin="round"/>
</svg>
