<svg width="22" height="24" viewBox="0 0 22 24" fill="none" xmlns="http://www.w3.org/2000/svg">
<path d="M12.2222 0C12.5337 0.000325982 12.8334 0.112862 13.0599 0.314613C13.2864 0.516365 13.4227 0.792105 13.441 1.08549C13.4592 1.37888 13.3581 1.66778 13.1581 1.89315C12.9582 2.11852 12.6746 2.26336 12.3652 2.29807L12.2222 2.30614H2.44444V18.4491H19.5556V9.22456C19.5559 8.93067 19.6752 8.64799 19.889 8.43428C20.1029 8.22058 20.3952 8.09197 20.7061 8.07475C21.0171 8.05753 21.3234 8.15298 21.5622 8.34161C21.8011 8.53024 21.9547 8.79781 21.9914 9.08965L22 9.22456V18.4491C22.0002 19.0309 21.7673 19.5913 21.3479 20.0179C20.9286 20.4445 20.3539 20.7059 19.7389 20.7495L19.5556 20.7553H2.44444C1.82774 20.7554 1.23375 20.5357 0.781553 20.1401C0.329353 19.7445 0.0523642 19.2023 0.00611137 18.6221L1.2255e-07 18.4491V2.30614C-0.000195041 1.72433 0.232719 1.16395 0.652052 0.737333C1.07138 0.310719 1.64614 0.0494014 2.26111 0.00576548L2.44444 0H12.2222ZM19.8526 0.395503C20.0725 0.188702 20.3676 0.0686382 20.678 0.0596966C20.9884 0.050755 21.2908 0.153606 21.5237 0.347361C21.7566 0.541116 21.9026 0.811244 21.932 1.10288C21.9615 1.39452 21.8722 1.6858 21.6822 1.91756L21.5808 2.0271L9.48078 13.4413C9.26083 13.6481 8.96569 13.7682 8.65531 13.7771C8.34493 13.7861 8.04257 13.6832 7.80966 13.4895C7.57675 13.2957 7.43074 13.0256 7.40129 12.734C7.37184 12.4423 7.46116 12.151 7.65111 11.9193L7.75256 11.8109L19.8526 0.395503Z" fill="white"/>
</svg>
