<svg width="48" height="48" viewBox="0 0 48 48" fill="none" xmlns="http://www.w3.org/2000/svg">
<g clip-path="url(#clip0_406_568)">
<rect x="48" y="48" width="48" height="48" rx="10" transform="rotate(180 48 48)" fill="white"/>
<path fill-rule="evenodd" clip-rule="evenodd" d="M35.4144 35.4139C35.0394 35.7889 34.5308 35.9995 34.0004 35.9995C33.4701 35.9995 32.9615 35.7889 32.5864 35.4139L22.5864 25.4139C22.2115 25.0389 22.0009 24.5303 22.0009 23.9999C22.0009 23.4696 22.2115 22.961 22.5864 22.5859L32.5864 12.5859C32.9636 12.2216 33.4688 12.02 33.9932 12.0246C34.5176 12.0291 35.0192 12.2395 35.3901 12.6103C35.7609 12.9811 35.9712 13.4827 35.9758 14.0071C35.9803 14.5315 35.7787 15.0367 35.4144 15.4139L26.8284 23.9999L35.4144 32.5859C35.7894 32.961 36 33.4696 36 33.9999C36 34.5303 35.7894 35.0389 35.4144 35.4139ZM23.4144 35.4139C23.0394 35.7889 22.5308 35.9995 22.0004 35.9995C21.4701 35.9995 20.9615 35.7889 20.5864 35.4139L10.5864 25.4139C10.2115 25.0389 10.0009 24.5303 10.0009 23.9999C10.0009 23.4696 10.2115 22.961 10.5864 22.5859L20.5864 12.5859C20.9636 12.2216 21.4688 12.02 21.9932 12.0246C22.5176 12.0291 23.0192 12.2395 23.3901 12.6103C23.7609 12.9811 23.9712 13.4827 23.9758 14.0071C23.9803 14.5315 23.7787 15.0367 23.4144 15.4139L14.8284 23.9999L23.4144 32.5859C23.7894 32.961 24 33.4696 24 33.9999C24 34.5303 23.7894 35.0389 23.4144 35.4139Z" fill="black"/>
</g>
<rect x="47.5" y="47.5" width="47" height="47" rx="9.5" transform="rotate(180 47.5 47.5)" stroke="black"/>
<defs>
<clipPath id="clip0_406_568">
<rect x="48" y="48" width="48" height="48" rx="10" transform="rotate(180 48 48)" fill="white"/>
</clipPath>
</defs>
</svg>
