<svg width="48" height="48" viewBox="0 0 48 48" fill="none" xmlns="http://www.w3.org/2000/svg">
<g clip-path="url(#clip0_406_564)">
<path fill-rule="evenodd" clip-rule="evenodd" d="M12.5856 12.5861C12.9606 12.2111 13.4692 12.0005 13.9996 12.0005C14.5299 12.0005 15.0385 12.2111 15.4136 12.5861L25.4136 22.5861C25.7885 22.9611 25.9991 23.4697 25.9991 24.0001C25.9991 24.5304 25.7885 25.039 25.4136 25.4141L15.4136 35.4141C15.0364 35.7784 14.5312 35.98 14.0068 35.9754C13.4824 35.9709 12.9808 35.7605 12.6099 35.3897C12.2391 35.0189 12.0288 34.5173 12.0242 33.9929C12.0197 33.4685 12.2213 32.9633 12.5856 32.5861L21.1716 24.0001L12.5856 15.4141C12.2106 15.039 12 14.5304 12 14.0001C12 13.4697 12.2106 12.9611 12.5856 12.5861ZM24.5856 12.5861C24.9606 12.2111 25.4692 12.0005 25.9996 12.0005C26.5299 12.0005 27.0385 12.2111 27.4136 12.5861L37.4136 22.5861C37.7885 22.9611 37.9991 23.4697 37.9991 24.0001C37.9991 24.5304 37.7885 25.039 37.4136 25.4141L27.4136 35.4141C27.0364 35.7784 26.5312 35.98 26.0068 35.9754C25.4824 35.9709 24.9808 35.7605 24.6099 35.3897C24.2391 35.0189 24.0288 34.5173 24.0242 33.9929C24.0197 33.4685 24.2213 32.9633 24.5856 32.5861L33.1716 24.0001L24.5856 15.4141C24.2106 15.039 24 14.5304 24 14.0001C24 13.4697 24.2106 12.9611 24.5856 12.5861Z" fill="black"/>
</g>
<rect x="0.5" y="0.5" width="47" height="47" rx="9.5" stroke="black"/>
<defs>
<clipPath id="clip0_406_564">
<rect width="48" height="48" rx="10" fill="white"/>
</clipPath>
</defs>
</svg>
