<svg width="24" height="25" viewBox="0 0 24 25" fill="none" xmlns="http://www.w3.org/2000/svg">
<path d="M20.415 24.5C19.421 24.5 18.5775 24.1911 17.8845 23.5733C17.1925 22.9547 16.8465 22.2036 16.8465 21.32C16.8465 21.1867 16.9125 20.8502 17.0445 20.3107L6.249 14.6133C5.925 14.9458 5.5285 15.2067 5.0595 15.396C4.5905 15.5853 4.087 15.68 3.549 15.68C2.563 15.68 1.725 15.368 1.035 14.744C0.345 14.12 0 13.372 0 12.5C0 11.628 0.345 10.88 1.035 10.256C1.725 9.632 2.563 9.32 3.549 9.32C4.086 9.32 4.5895 9.41467 5.0595 9.604C5.5295 9.79333 5.926 10.0547 6.249 10.388L17.046 4.71467C16.976 4.54222 16.9255 4.37111 16.8945 4.20133C16.8625 4.03067 16.8465 3.85644 16.8465 3.67867C16.8465 2.796 17.195 2.04533 17.892 1.42667C18.589 0.808889 19.435 0.5 20.43 0.5C21.425 0.5 22.269 0.809778 22.962 1.42933C23.655 2.04889 24.001 2.80089 24 3.68533C23.999 4.56978 23.6515 5.32 22.9575 5.936C22.2635 6.552 21.4185 6.85955 20.4225 6.85867C19.8805 6.85867 19.3805 6.76 18.9225 6.56267C18.4645 6.36533 18.0745 6.1 17.7525 5.76667L6.954 11.464C7.024 11.6364 7.0745 11.808 7.1055 11.9787C7.1375 12.1484 7.1535 12.3222 7.1535 12.5C7.1535 12.6778 7.1375 12.8516 7.1055 13.0213C7.0735 13.1911 7.0235 13.3627 6.9555 13.536L17.7525 19.2333C18.0755 18.9 18.4655 18.6347 18.9225 18.4373C19.3805 18.24 19.8805 18.1413 20.4225 18.1413C21.4165 18.1413 22.2615 18.4507 22.9575 19.0693C23.6525 19.6898 24 20.4422 24 21.3267C24 22.2111 23.6515 22.9613 22.9545 23.5773C22.2575 24.1933 21.41 24.5009 20.415 24.5ZM20.4225 23.1667C21.0115 23.1667 21.505 22.9898 21.903 22.636C22.301 22.2822 22.5 21.844 22.5 21.3213C22.5 20.7987 22.301 20.36 21.903 20.0053C21.505 19.6507 21.012 19.4738 20.424 19.4747C19.836 19.4756 19.3425 19.6524 18.9435 20.0053C18.5445 20.3582 18.3455 20.7964 18.3465 21.32C18.3475 21.8436 18.5465 22.2822 18.9435 22.636C19.3405 22.9898 19.8325 23.1667 20.4225 23.1667ZM3.549 14.3453C4.145 14.3453 4.645 14.1684 5.049 13.8147C5.452 13.4609 5.6535 13.0227 5.6535 12.5C5.6535 11.9773 5.452 11.5391 5.049 11.1853C4.646 10.8316 4.146 10.6547 3.549 10.6547C2.968 10.6547 2.4815 10.8316 2.0895 11.1853C1.6975 11.5391 1.501 11.9773 1.5 12.5C1.499 13.0227 1.6955 13.4613 2.0895 13.816C2.4835 14.1707 2.97 14.3471 3.549 14.3453ZM20.424 5.52533C21.012 5.52533 21.505 5.34844 21.903 4.99467C22.301 4.64089 22.5 4.20222 22.5 3.67867C22.5 3.15511 22.301 2.71689 21.903 2.364C21.505 2.01111 21.012 1.83422 20.424 1.83333C19.836 1.83244 19.3425 2.00933 18.9435 2.364C18.5445 2.71867 18.3455 3.15733 18.3465 3.68C18.3475 4.20267 18.5465 4.64089 18.9435 4.99467C19.3405 5.34844 19.834 5.52533 20.424 5.52533Z" fill="white"/>
</svg>
