<svg width="20" height="20" viewBox="0 0 20 20" fill="none" xmlns="http://www.w3.org/2000/svg">
<path fill-rule="evenodd" clip-rule="evenodd" d="M9.99935 2.2915C7.95497 2.2915 5.99433 3.10363 4.54873 4.54922C3.10314 5.99482 2.29102 7.95546 2.29102 9.99984C2.29102 12.0442 3.10314 14.0049 4.54873 15.4505C5.99433 16.896 7.95497 17.7082 9.99935 17.7082C12.0437 17.7082 14.0044 16.896 15.45 15.4505C16.8956 14.0049 17.7077 12.0442 17.7077 9.99984C17.7077 7.95546 16.8956 5.99482 15.45 4.54922C14.0044 3.10363 12.0437 2.2915 9.99935 2.2915ZM14.566 17.7082C15.9043 16.9152 17.013 15.7874 17.783 14.4358C18.5531 13.0842 18.9579 11.5554 18.9577 9.99984C18.9577 5.05234 14.9468 1.0415 9.99935 1.0415C5.05185 1.0415 1.04102 5.05234 1.04102 9.99984C1.04102 14.9473 5.05185 18.9582 9.99935 18.9582H18.3327C18.4984 18.9582 18.6574 18.8923 18.7746 18.7751C18.8918 18.6579 18.9577 18.4989 18.9577 18.3332C18.9577 18.1674 18.8918 18.0084 18.7746 17.8912C18.6574 17.774 18.4984 17.7082 18.3327 17.7082H14.566ZM9.99935 5.62484C9.83359 5.62484 9.67462 5.69069 9.55741 5.8079C9.4402 5.92511 9.37435 6.08408 9.37435 6.24984C9.37435 6.4156 9.4402 6.57457 9.55741 6.69178C9.67462 6.80899 9.83359 6.87484 9.99935 6.87484C10.1651 6.87484 10.3241 6.80899 10.4413 6.69178C10.5585 6.57457 10.6243 6.4156 10.6243 6.24984C10.6243 6.08408 10.5585 5.92511 10.4413 5.8079C10.3241 5.69069 10.1651 5.62484 9.99935 5.62484ZM8.12435 6.24984C8.12435 5.75256 8.32189 5.27564 8.67352 4.92401C9.02515 4.57238 9.50207 4.37484 9.99935 4.37484C10.4966 4.37484 10.9735 4.57238 11.3252 4.92401C11.6768 5.27564 11.8743 5.75256 11.8743 6.24984C11.8743 6.74712 11.6768 7.22403 11.3252 7.57566C10.9735 7.92729 10.4966 8.12484 9.99935 8.12484C9.50207 8.12484 9.02515 7.92729 8.67352 7.57566C8.32189 7.22403 8.12435 6.74712 8.12435 6.24984ZM6.24935 9.37484C6.08359 9.37484 5.92462 9.44069 5.80741 9.5579C5.6902 9.67511 5.62435 9.83408 5.62435 9.99984C5.62435 10.1656 5.6902 10.3246 5.80741 10.4418C5.92462 10.559 6.08359 10.6248 6.24935 10.6248C6.41511 10.6248 6.57408 10.559 6.69129 10.4418C6.8085 10.3246 6.87435 10.1656 6.87435 9.99984C6.87435 9.83408 6.8085 9.67511 6.69129 9.5579C6.57408 9.44069 6.41511 9.37484 6.24935 9.37484ZM4.37435 9.99984C4.37435 9.50256 4.57189 9.02564 4.92352 8.67401C5.27515 8.32238 5.75207 8.12484 6.24935 8.12484C6.74663 8.12484 7.22354 8.32238 7.57517 8.67401C7.9268 9.02564 8.12435 9.50256 8.12435 9.99984C8.12435 10.4971 7.9268 10.974 7.57517 11.3257C7.22354 11.6773 6.74663 11.8748 6.24935 11.8748C5.75207 11.8748 5.27515 11.6773 4.92352 11.3257C4.57189 10.974 4.37435 10.4971 4.37435 9.99984ZM13.7493 9.37484C13.5836 9.37484 13.4246 9.44069 13.3074 9.5579C13.1902 9.67511 13.1243 9.83408 13.1243 9.99984C13.1243 10.1656 13.1902 10.3246 13.3074 10.4418C13.4246 10.559 13.5836 10.6248 13.7493 10.6248C13.9151 10.6248 14.0741 10.559 14.1913 10.4418C14.3085 10.3246 14.3743 10.1656 14.3743 9.99984C14.3743 9.83408 14.3085 9.67511 14.1913 9.5579C14.0741 9.44069 13.9151 9.37484 13.7493 9.37484ZM11.8743 9.99984C11.8743 9.75361 11.9228 9.50979 12.0171 9.2823C12.1113 9.05482 12.2494 8.84812 12.4235 8.67401C12.5976 8.4999 12.8043 8.36179 13.0318 8.26756C13.2593 8.17334 13.5031 8.12484 13.7493 8.12484C13.9956 8.12484 14.2394 8.17334 14.4669 8.26756C14.6944 8.36179 14.9011 8.4999 15.0752 8.67401C15.2493 8.84812 15.3874 9.05482 15.4816 9.2823C15.5759 9.50979 15.6243 9.75361 15.6243 9.99984C15.6243 10.4971 15.4268 10.974 15.0752 11.3257C14.7235 11.6773 14.2466 11.8748 13.7493 11.8748C13.2521 11.8748 12.7752 11.6773 12.4235 11.3257C12.0719 10.974 11.8743 10.4971 11.8743 9.99984ZM9.99935 13.1248C9.83359 13.1248 9.67462 13.1907 9.55741 13.3079C9.4402 13.4251 9.37435 13.5841 9.37435 13.7498C9.37435 13.9156 9.4402 14.0746 9.55741 14.1918C9.67462 14.309 9.83359 14.3748 9.99935 14.3748C10.1651 14.3748 10.3241 14.309 10.4413 14.1918C10.5585 14.0746 10.6243 13.9156 10.6243 13.7498C10.6243 13.5841 10.5585 13.4251 10.4413 13.3079C10.3241 13.1907 10.1651 13.1248 9.99935 13.1248ZM8.12435 13.7498C8.12435 13.2526 8.32189 12.7756 8.67352 12.424C9.02515 12.0724 9.50207 11.8748 9.99935 11.8748C10.4966 11.8748 10.9735 12.0724 11.3252 12.424C11.6768 12.7756 11.8743 13.2526 11.8743 13.7498C11.8743 14.2471 11.6768 14.724 11.3252 15.0757C10.9735 15.4273 10.4966 15.6248 9.99935 15.6248C9.50207 15.6248 9.02515 15.4273 8.67352 15.0757C8.32189 14.724 8.12435 14.2471 8.12435 13.7498Z" fill="black"/>
</svg>
